<?xml version="1.0" encoding="utf-8"?>
<!-- Generator: Adobe Illustrator 23.0.3, SVG Export Plug-In . SVG Version: 6.00 Build 0)  -->
<svg version="1.1" id="Layer_1" xmlns="http://www.w3.org/2000/svg" xmlns:xlink="http://www.w3.org/1999/xlink" x="0px" y="0px"
	 viewBox="0 0 384 512" style="enable-background:new 0 0 384 512;" xml:space="preserve">
<style type="text/css">
	.st0{fill:#017DBA;}
</style>
<path class="st0" d="M192,0C85.9,0,0,86,0,192c0,71.1,24,93.3,151.3,297.4c18.8,30.1,62.7,30.1,81.5,0
	C360.1,285.2,384,263.1,384,192C384,85.9,298,0,192,0z M192,464C64.6,259.7,48,246.8,48,192c0-79.5,64.5-144,144-144
	s144,64.5,144,144C336,246.6,320.8,257.4,192,464z M112,192c0-44.2,35.8-80,80-80s80,35.8,80,80s-35.8,80-80,80S112,236.2,112,192z"
	/>
</svg>
