<?xml version="1.0" encoding="utf-8"?>
<!-- Generator: Adobe Illustrator 23.0.3, SVG Export Plug-In . SVG Version: 6.00 Build 0)  -->
<svg version="1.1" id="Layer_1" xmlns="http://www.w3.org/2000/svg" xmlns:xlink="http://www.w3.org/1999/xlink" x="0px" y="0px"
	 viewBox="0 0 512 512" style="enable-background:new 0 0 512 512;" xml:space="preserve">
<style type="text/css">
	.st0{fill:#676767;}
</style>
<path class="st0" d="M140,284c-6.6,0-12-5.4-12-12v-32c0-6.6,5.4-12,12-12h232c6.6,0,12,5.4,12,12v32c0,6.6-5.4,12-12,12H140z
	 M504,256c0,137-111,248-248,248S8,393,8,256S119,8,256,8S504,119,504,256z M456,256c0-110.5-89.5-200-200-200S56,145.5,56,256
	s89.5,200,200,200S456,366.5,456,256z"/>
</svg>
